<?xml version="1.0" encoding="UTF-8" standalone="no"?>
<svg width="323px" height="44px" viewBox="0 0 323 44" version="1.1" xmlns="http://www.w3.org/2000/svg" xmlns:xlink="http://www.w3.org/1999/xlink" xmlns:sketch="http://www.bohemiancoding.com/sketch/ns">
    <title>logo</title>
    <defs></defs>
    <g id="Desktop" stroke="none" stroke-width="1" fill="none" fill-rule="evenodd" sketch:type="MSPage">
        <g id="Numbertank" sketch:type="MSArtboardGroup" transform="translate(-641.000000, -247.000000)" fill="#222222">
            <g id="Middle-Content" sketch:type="MSLayerGroup" transform="translate(402.000000, 174.000000)">
                <g id="Left-Align" transform="translate(239.000000, 73.000000)" sketch:type="MSShapeGroup">
                    <g id="logo">
                        <path d="M6.53997803,12.8514961 L6.53997803,15.3480961 L6.7313629,15.4578961 C6.7313629,15.4578961 8.86784677,13.1484961 11.4575242,12.5508961 C11.4575242,12.5508961 17.1817903,10.9272961 21.6435887,13.2546961 C24.1019839,14.4822961 26.5100242,17.4918961 26.616129,20.3358961 L26.6161288,43.5 L20.0843868,43.5 L20.0843871,23.6370961 C20.0843871,20.1954961 17.4533468,18.5466961 13.626379,18.5286961 C9.49368548,18.5466961 6.53997803,21.6732961 6.53997803,23.6370961 L6.53533871,43.5 L-5.20417043e-18,43.5 L7.73899018e-10,12.8586961 L6.53997803,12.8514961 Z" id="Shape"></path>
                        <path d="M39.6280403,12.0126 L39.6064597,31.4658608 C39.6100565,39.5622608 52.472121,39.2670608 52.472121,30.9780608 L52.463129,12.0162 L59.4300806,12 L59.4192903,42.7949982 L52.4761602,42.7932608 L52.4595323,40.1364608 L52.2329355,40.1364608 C46.1903548,46.1898608 32.6449032,43.7940608 32.616129,35.1810608 L32.616129,12.0126 L39.6280403,12.0126 Z" id="Shape"></path>
                        <path d="M72.3071131,12.855011 L72.3071131,15.2601606 C74.9705244,12.5853606 79.6442763,11.2630396 83.3489537,12.4168396 C85.7030424,13.1062396 87.0682744,14.2629606 88.5051857,16.0773606 C95.0261373,8.4147606 108.438508,12.0255606 108.438508,22.9533606 L108.427718,43.5000007 L101.57946,43.5000007 L101.57946,23.1945606 C101.57946,20.3775606 99.4735486,18.0861606 96.1753067,18.0861606 C92.529976,18.0861606 90.3611212,19.9509606 90.3611212,23.1945606 L90.3539276,43.5 L83.5002744,43.5000007 L83.5002744,23.1927606 C83.5272502,19.6683606 81.1210083,18.1869606 77.9576454,18.0843606 C74.8949922,18.0843606 72.3035164,20.7879606 72.3035164,23.1927606 L72.3035161,43.5000007 L65.4300806,43.5000007 L65.4408712,12.855011 L72.3071131,12.855011 Z" id="Shape"></path>
                        <path d="M121.425242,0 L121.530963,14.9836421 L121.777342,15.0718421 C121.777342,15.0718421 123.850882,12.9496421 127.537576,12.2206421 C127.537576,12.2206421 130.558866,11.5906421 134.186213,12.6598421 C134.186213,12.6598421 135.689665,13.1440421 136.3191,13.4734421 C136.3191,13.4734421 138.646213,14.5588421 139.838544,15.7972421 C139.838544,15.7972421 141.484068,17.3326421 142.314923,18.7402421 C142.314923,18.7402421 143.674503,20.8336421 144.206826,23.2852421 C144.206826,23.2852421 144.710758,24.948 144.685581,27.6264 C144.685581,27.6264 144.64242,30.753 143.763008,33.5196 C143.763008,33.5196 142.833242,37.1268 139.621323,39.8664 C139.621323,39.8664 137.768984,41.616 134.817831,42.6222 C134.817831,42.6222 131.595121,43.8282 128.422766,43.4286 C128.422766,43.4286 126.352823,43.2846 124.047291,42.0642 C124.047291,42.0642 122.24171,41.049 121.686008,40.4586 L121.425242,40.545 L121.432436,42.7949982 L114.449299,42.7949982 L114.438508,0.0072 L121.425242,0 Z M132.724508,18.8028 C132.724508,18.8028 134.735105,19.7298 135.925637,21.8592 C135.925637,21.8592 138.024355,24.768 137.355355,29.1672 C137.355355,29.1672 137.094589,32.319 134.479734,34.7706 C134.479734,34.7706 132.620202,36.8604 129.009041,36.9036 C129.009041,36.9036 124.721686,37.098 122.362202,33.4692 C122.362202,33.4692 121.678815,32.4216 121.623065,31.0032 L121.623065,23.0832 C121.623065,23.0832 121.905412,20.8242 124.290073,19.332 C124.291871,19.332 125.92121,18.1566 127.442645,18.0486 C127.442645,18.0486 130.151016,17.4474 132.724508,18.8028 Z" id="Shape"></path>
                        <path d="M176.313361,39.8859963 C166.106975,46.3406982 149.757304,44.4624023 147.931215,31.4241963 C146.036967,19.7012329 155.552958,9.27392571 167.618159,12.6969963 C176.31336,14.7762452 178.145917,22.9353963 178.225046,30.4287963 L155.315393,30.4287963 C155.083401,38.9265963 166.391659,39.7347963 171.808401,35.1357963 L176.313361,39.8859963 Z M162.987312,17.8521963 C167.369982,17.7405963 170.794111,21.2163963 170.853457,25.5219963 L155.169723,25.4931963 C155.371143,21.2181963 158.536304,17.6181963 162.987312,17.8521963 Z" id="Shape"></path>
                        <path d="M189.254559,12.855011 L189.254559,15.7459888 L189.497342,15.8485888 C189.497342,15.8485888 192.121188,11.7247888 198.735656,12.0145888 L198.728463,18.7537888 C195.151471,18.3775888 190.009882,20.5159888 189.371455,24.4273888 C189.371455,24.4273888 189.249164,24.7171888 189.269989,25.7305888 L189.268946,43.5 L182.730011,43.5 L182.730011,12.855011 L189.254559,12.855011 Z" id="Shape"></path>
                        <path d="M209.137292,2.367 L209.175058,12 L203.242179,12 L203.234985,17.4576 L209.182251,17.4576 L209.175018,36.4674 C209.175018,40.2186 212.556076,43.2804 216.627624,43.5 C217.942245,43.6926 223.772616,42.8466 225.565608,42.6612 L224.803092,36.903 C222.310527,37.5474 216.405029,38.3718 216.405029,34.8762 L216.399179,17.4936 L225.610518,17.4936 L225.581743,12.0378 L216.42076,11.991 L216.415364,0 L209.137292,2.367 Z" id="Shape"></path>
                        <path d="M233.924023,20.1468862 C237.511805,18.5718862 248.420822,15.0564862 248.406435,21.8406862 L248.406435,24.0600862 C241.761394,24.8412862 231.278596,24.5622862 230.233733,32.9520862 C228.699709,42.9240862 242.404724,46.0984497 249.438709,41.3076862 C249.438709,41.3076862 251.819773,42.8502 254.950765,43.5 L258.222031,38.6184 C256.46283,37.828125 254.920193,38.0838862 254.912999,36.0750862 L254.950765,21.1782862 C254.950765,21.1782862 255.207935,17.3766862 251.136386,14.0394862 C246.554096,10.0668862 236.423781,12.7470862 231.512386,14.9322862 L233.924023,20.1468862 Z M248.420822,35.0940862 C247.929862,39.2754862 239.454064,40.2582862 237.152128,36.4800862 C233.688435,30.7794862 244.541701,28.3044862 248.399241,29.2548862 L248.420822,35.0940862 Z" id="Shape"></path>
                        <path d="M267.75,12.8514961 L267.75,15.3480961 L267.951004,15.4578961 C267.951004,15.4578961 270.091085,13.1484961 272.677166,12.5508961 C272.677166,12.5508961 278.406827,10.9272961 282.861432,13.2546961 C285.321625,14.4822961 287.733262,17.4918961 287.837569,20.3358961 L287.837568,43.5 L281.311222,43.5 L281.311222,23.6370961 C281.311222,20.1954961 278.676585,18.5466961 274.847819,18.5286961 C270.715125,18.5466961 267.666859,21.6732961 267.75,23.6370961 L267.751383,43.5 L261.225037,43.5 L261.225037,12.8586961 L267.75,12.8514961 Z" id="Shape"></path>
                        <path d="M300.689424,0 L300.675037,24.201 L300.923214,24.3144 L313.557841,12.0346937 L322.407704,12.0184937 L309.686754,24.4386 L322.801839,43.5 L315.367306,43.491 L305.192585,28.6326 L300.667843,33.0768 L300.667843,43.5 L293.837569,43.5 L293.851956,0 L300.689424,0 Z" id="Shape"></path>
                    </g>
                </g>
            </g>
        </g>
    </g>
</svg>
